<svg  xmlns="http://www.w3.org/2000/svg" xmlns:xlink="http://www.w3.org/1999/xlink" width="1096" height="300" viewBox="0 0 1120 324"><path transform="translate(0 100)" d="M42.8,10.1L49.9,10.1Q52.6,10.1 54.8,8.4Q57,6.1 57,3L57,-17L77.7,-17Q81,-16.9 84.2,-17.7Q86.7,-18.3 88.7,-19.8Q92,-22.6 91.9,-27L91.9,-62L57,-62L57,-80L42.8,-80L42.8,-62L8.2,-62L8.2,-17L42.8,-17L42.8,10.1ZM77.7,-51.8L77.7,-27L57,-27L57,-51.8L77.7,-51.8ZM22.4,-51.8L42.8,-51.8L42.8,-27L22.4,-27L22.4,-51.8Z"></path><path transform="translate(100 100)" d="M95.1,9.7L97.2,2.1Q85.2,-1.4 73.9,-6.9Q65.6,-11 58.4,-16.7Q65.6,-23.9 70.7,-32.8Q76.7,-43.9 80,-56.1L93.6,-56.1L93.6,-65.8L58,-65.8L59.7,-66.9Q55.8,-74.5 52.2,-82.3L39.2,-80Q40.6,-75.3 43.2,-71.3Q45.8,-67.7 49.8,-65.8L6.2,-65.8L6.2,-56.1L19.5,-56.1Q23,-43.9 29.2,-32.9Q34.3,-24 41.6,-16.8Q34.4,-11 26.3,-6.8Q14.8,-1 2.7,2.9L5,10.3Q18.8,6.5 32,0.6Q41.5,-3.5 50,-9.7Q58.4,-3.6 67.9,0.5Q81.1,6.2 95.1,9.7ZM49.9,-24.8Q44.5,-30.7 40.8,-37.9Q36.4,-46.6 34.1,-56.1L65.1,-56.1Q62.7,-46.6 58.5,-37.9Q54.9,-30.8 49.9,-24.8Z"></path><path transform="translate(200 100)" d="M79.1,-6L79.3,-6.2Q79.2,-4.4 78.8,-2.7Q78.5,-1.5 77.5,-0.7Q76.7,-0.1 75.7,0.1Q74,0.5 72.2,0.5L63.1,-0L63.1,4.8Q66.2,7.1 69.8,8.6Q72.7,9.6 75.8,9.6Q80.1,9.6 84.3,8.9Q86.5,8.4 88.4,7.2Q90.5,5.6 91.3,3Q92.1,-0.3 92.1,-3.9L92.1,-75.6L7.7,-75.6L7.7,9.8L14.1,9.8Q16.6,9.8 18.5,8.2Q20.5,6.2 20.5,3.4L20.5,-3.7L21,-3.2Q31.7,-12 39,-24Q43,-18.3 48.1,-13.6Q45.5,-9.4 42.7,-5.5L46.2,-1.8Q57.1,-11 65,-23Q68.4,-17.8 72.3,-13Q75.4,-9.2 79.1,-6ZM54.8,-59.5L43.6,-60.9Q41,-53 37.9,-45.3Q34.3,-52.2 30.6,-59.1L20.8,-54.8Q22.4,-51.8 24,-48.8Q28.1,-41 32.7,-33.5Q27.3,-21.9 20.5,-11.3L20.5,-66.2L79.3,-66.2L79.3,-58.7L69.7,-59.9Q67.2,-52.1 64.1,-44.7L58.1,-55.5L52.4,-52.6L54.8,-59.5ZM44.2,-33.2Q47.6,-40 50.4,-47.3Q54.4,-39.9 58.8,-32.8Q55.3,-25.8 51.4,-19.1L44.2,-33.2ZM70.6,-32.6Q75.7,-42.7 79.3,-53.5L79.3,-16.1L70.6,-32.6Z"></path><path transform="translate(300 100)" d="M5.2,-26.7L5.2,-17.1L43.6,-17.1L43.6,-6.5Q43.6,-4.7 43.4,-3Q43.2,-1.8 42.5,-0.9Q42,-0.3 41.3,-0Q39.9,0.3 38.5,0.3L27.7,-0.2L27.7,4.6Q31.5,7 35.9,8.4Q39.5,9.4 43.3,9.4Q47.1,9.4 50.9,8.8Q53.4,8.2 55.3,6.5Q56.4,5 56.9,3.2Q57.6,-0.2 57.6,-3.8L57.6,-17.1L94.6,-17.1L94.6,-26.7L57.6,-26.7L57.6,-28L76.4,-41.4L76.4,-50.8L21.8,-50.8L21.8,-41.3L55.6,-41.3L43.6,-31.4L43.6,-26.7L5.2,-26.7ZM6.5,-69.3L6.5,-46.8L13.4,-46.8Q16.5,-46.7 18.6,-48.9Q20.3,-51 20.3,-53.7L20.3,-59.7L79.6,-59.7L79.6,-46.7L86.6,-46.7Q89.3,-46.6 91.4,-48.3Q93.6,-50.5 93.6,-53.7L93.6,-69.3L59.5,-69.3Q56.3,-75.3 53.5,-81.6L39.3,-79.4Q40.7,-76 42.6,-73Q43.9,-70.9 45.7,-69.3L6.5,-69.3Z"></path><path transform="translate(400 100)" d="M59.3,10L66.1,10Q68.6,10 70.6,8.3Q72.5,6.1 72.5,3.2L72.7,-37.2L95.7,-37.2L95.7,-47.4L72.7,-47.4L72.9,-79.8L59.3,-79.8L59.3,-47.4L36.7,-47.4L36.7,-37.2L59.3,-37.2L59.3,10ZM46.4,-14.8L43.2,-21.4L29.7,-11.4L29.7,-49.7L4.3,-49.7L4.3,-39.7L15.7,-39.7L15.7,-5.7Q15.7,-3.8 15.3,-2Q14.9,-0.4 13.7,0.6L22.3,8Q34.2,-3.5 46.4,-14.8ZM33.1,-54.8L37.1,-59.4Q33,-64.4 29.2,-69.5Q25.2,-74.9 21,-80.2L10.2,-74Q10.7,-73.2 11.3,-72.4Q14.2,-68.7 17.3,-65.1Q19.2,-63 21.4,-61.1Q26.7,-56.9 33.1,-54.8Z"></path><path transform="translate(500 100)" d="M13.9,-79.7Q14.1,-69.9 14.8,-60.2L15.1,-54.5L3.7,-52.6L5.5,-43.1L15.9,-44.8Q16.9,-30.8 20.2,-17.3Q11.5,-9.5 1.5,-3.8L3.9,2.2Q14.1,-1.7 23.4,-7.7Q24.8,-4 27,-0.8Q29.7,3.8 33.8,7.2Q37.3,9.8 41.7,9.8Q43.4,9.7 45.1,9Q47.5,7.9 49.2,5.8Q51.5,3.1 53.3,-0Q55.8,-4.2 58.1,-8.7L52.1,-8.7Q50,-5.7 47.2,-3.2Q45.5,-1.7 43.2,-1.7Q41.6,-1.8 40.3,-2.8Q38.9,-4 37.9,-5.7Q34.8,-10.2 33.4,-15.5Q38.8,-20.6 43.4,-26.5Q48.7,-33.5 53.2,-41.2L42.6,-46.1Q37.6,-36.3 30.6,-27.9Q29,-37.3 28.5,-46.9L56,-51.5L54.2,-60.9L27.9,-56.6Q27.7,-57.9 27.8,-59.3Q27.3,-69.4 27.1,-79.7L13.9,-79.7ZM65.6,-0.2L65.6,4.6Q68.6,6.9 72.1,8.4Q74.9,9.4 77.9,9.4Q81.6,9.4 85.3,8.6Q87.1,8.1 88.7,7Q90.5,5.5 91.2,3.2Q91.9,0.3 91.9,-2.6L91.9,-79.6L79.3,-79.6L79.3,-6.1Q79.3,-4.4 79.1,-2.8Q78.9,-1.7 78.3,-0.8Q77.8,-0.3 77.1,-0Q75.8,0.3 74.5,0.3L65.6,-0.2ZM59.2,-70.8L59.2,-12.5L65.5,-12.5Q67.9,-12.4 69.8,-14Q71.8,-15.9 71.8,-18.8L71.8,-70.8L59.2,-70.8ZM27.9,-72.8Q35.3,-63.8 46.4,-60.2L49.3,-64.2Q42.2,-71.1 35.3,-78.3L27.9,-72.8Z"></path><path transform="translate(0 200)" d="M66.8,-74.4Q67.5,-74.3 67.8,-73.7L70.3,-62.9Q70.1,-61.5 68.9,-61.5Q67.5,-64.6 62.9,-64.9L46.4,-64.9L46.4,-8.4Q46.8,-1 40.2,2.05Q33.6,5.1 28.2,5.5L27.3,4.3L27.3,-64.9L10.6,-64.9Q6.3,-64.7 5,-61.5L4.5,-61.5Q3.4,-61.8 3.2,-63.2L4.9,-73.8Q5.1,-74.4 5.7,-74.4L66.8,-74.4ZM28.2,5.5Q27.3,5.5 27.3,4.2Q27.3,2.9 28.2,2.9Q29,2.9 29,4.2Q29,5.5 28.2,5.5Z"></path><path transform="translate(70 200)" d="M22.2,-77.1Q23.7,-76.8 23.6,-75.5L23.6,-46.7Q28.9,-51.3 35.5,-51.3L38.6,-51.3Q52.6,-51 56.7,-39.1Q57.4,-35.3 57.4,-32.2L57.4,-4Q57.8,3.1 50.1,4.7Q43.8,4.7 42.4,4.7L42.1,4.7Q41.3,4.7 41.3,3.9L41.3,-33.3Q40.7,-42.5 32.9,-42.5Q25.3,-42.6 23.6,-36.8L23.6,1.4Q23.6,3 23.25,3.9Q22.9,4.8 21.3,4.7L8.6,4.8Q7.4,4.5 7.5,3.2L7.5,-61.4Q7.6,-67 0.9,-71Q0.8,-72.1 2.2,-72.7Q16.3,-76 22.2,-77.1Z"></path><path transform="translate(138 200)" d="M28.7,-43.5Q25.2,-43.5 22.5,-39.85Q19.8,-36.2 19.8,-27.5L39.7,-27.5Q40,-35.1 36.8,-39.35Q33.6,-43.6 28.7,-43.5ZM54.8,-32.9Q56.7,-27 56,-20.4Q56.1,-18.2 54.2,-18.2L20.1,-18Q19.4,-18.2 19.6,-17.2Q19.7,-6.4 30.5,-4.2Q41.3,-2 50.8,-8.8Q51.1,-9.1 51.5,-8.9Q52.7,-8 54.2,-6.2Q54.8,-5.6 54.4,-5.1Q44,6.6 28.9,5.8Q10.2,5.1 3.5,-12.7Q2.6,-16.8 2.6,-20.1L2.6,-24Q5.8,-50.7 28.8,-51Q48.3,-51 54.8,-32.9Z"></path><path transform="translate(196 200)" d=""></path><path transform="translate(226 200)" d="M4.6,-74.4L32.4,-74.4Q65.6,-74.4 65.6,-49.9Q65.6,-31.2 46.1,-26.3Q38.1,-24.8 26.2,-25.4L26.2,-10.6Q26.2,1.2 10.2,6Q8.6,5.9 8.8,4.4L8.8,-60.7Q8.8,-68.2 1.7,-71.9L1.7,-72.7Q2.4,-74.4 4.6,-74.4ZM26.2,-64.9L26.2,-35L34.1,-35Q48.6,-35 48.6,-49.9Q48.6,-64.9 33.7,-64.9L26.2,-64.9Z"></path><path transform="translate(298 200)" d="M37.9,-50.5Q49.9,-50.7 51,-34.1L51,-32.6Q51,-31.5 49.9,-31.3L40.6,-31.3Q39.8,-31.4 39.8,-32.6Q39.1,-38.1 36.4,-39L35.2,-39.1Q30.9,-39.1 25.2,-30.6Q24.5,-29.3 24.5,-28.3L24.5,-12.1Q24.5,1.8 13.1,5.1Q12.4,5.4 9.4,5.5Q8.7,5.3 8.6,4.5L8.6,-33.5Q8.6,-40.1 2.4,-43.9Q2.5,-45.7 4.1,-46Q20.1,-49.8 22.7,-50.1Q23.6,-50.1 23.4,-49L23.4,-37.1L23.7,-37.1Q29.6,-50.6 37.9,-50.5Z"></path><path transform="translate(354 200)" d="M2.7,-22.9Q2.7,-29.3 4.65,-34.6Q6.6,-39.9 10.35,-43.7Q14.1,-47.5 19.5,-49.65Q24.9,-51.8 31.8,-51.8Q38.7,-51.8 44.1,-49.65Q49.5,-47.5 53.25,-43.7Q57,-39.9 58.95,-34.6Q60.9,-29.3 60.9,-22.9Q60.9,-16.5 58.95,-11.2Q57,-5.9 53.25,-2.1Q49.5,1.7 44.1,3.85Q38.7,6 31.8,6Q24.9,6 19.5,3.85Q14.1,1.7 10.35,-2.1Q6.6,-5.9 4.65,-11.2Q2.7,-16.5 2.7,-22.9ZM19.7,-22.9Q19.7,-13.4 22.9,-8.05Q26.1,-2.7 31.8,-2.7Q37.5,-2.7 40.7,-8.05Q43.9,-13.4 43.9,-22.9Q43.9,-32.4 40.7,-37.75Q37.5,-43.1 31.8,-43.1Q26.1,-43.1 22.9,-37.75Q19.7,-32.4 19.7,-22.9Z"></path><path transform="translate(419 200)" d="M25.1,-52.3Q26.3,-52.3 26.2,-50.9L26.2,1.9Q26.2,22.2 10.5,28.3Q5.3,29.9 -1.8,30.3Q-3.3,30.2 -2.7,28.8Q4.9,24.3 6.9,21.1Q10.5,16.7 10.5,-3.7L10.5,-27.5Q10.8,-42.8 2,-44.5Q1.9,-47.1 4.2,-47.6L25.1,-52.3ZM8,-69.4Q8,-66 10.1,-63.4Q12.9,-60.5 17,-60.5Q20.9,-60.5 23.6,-63.4Q26,-66 26.1,-69.4Q26,-72.9 23.6,-75.5Q20.9,-78.5 17,-78.6Q13.4,-78.5 10.8,-76.1Q8,-73.4 8,-69.4Z"></path><path transform="translate(457 200)" d="M28.7,-43.5Q25.2,-43.5 22.5,-39.85Q19.8,-36.2 19.8,-27.5L39.7,-27.5Q40,-35.1 36.8,-39.35Q33.6,-43.6 28.7,-43.5ZM54.8,-32.9Q56.7,-27 56,-20.4Q56.1,-18.2 54.2,-18.2L20.1,-18Q19.4,-18.2 19.6,-17.2Q19.7,-6.4 30.5,-4.2Q41.3,-2 50.8,-8.8Q51.1,-9.1 51.5,-8.9Q52.7,-8 54.2,-6.2Q54.8,-5.6 54.4,-5.1Q44,6.6 28.9,5.8Q10.2,5.1 3.5,-12.7Q2.6,-16.8 2.6,-20.1L2.6,-24Q5.8,-50.7 28.8,-51Q48.3,-51 54.8,-32.9Z"></path><path transform="translate(523 200)" d="M31.7,-50.9Q52.4,-50.9 55.9,-34.3Q56.3,-31.5 56.3,-29.7Q56.4,-27.9 55.2,-27.7L45,-27.7Q44.2,-28.1 44,-29.1Q42.5,-41.9 31.7,-42.1Q19.7,-40.8 19.5,-21.8Q19.5,-7.5 31.2,-4.35Q42.9,-1.2 51.3,-9.5Q52,-9.7 52.6,-9.4Q54,-8.4 55.3,-6.6Q56,-5.9 55.6,-5Q47,6.1 31.3,6.1Q15,5.8 8.55,-3.25Q2.1,-12.3 2.8,-23.5Q5.3,-50.5 31.7,-50.9Z"></path><path transform="translate(584 200)" d="M27.3,-67.5L27.3,-50.3L43.4,-50.3Q44.2,-50.2 44.2,-49.5Q43.6,-46.3 41.45,-44.4Q39.3,-42.5 35.9,-42.4L27.3,-42.3L27.3,-11.3Q27.3,-3.4 34.1,-3.4Q38.7,-3.6 41.9,-5.3Q42.8,-5.8 43.3,-5.1Q44.2,-3.6 44.5,-2.8Q43.8,0.4 39.3,2.8Q34.8,5.2 27.7,5.2Q14.2,5.2 11.9,-2.8Q11.1,-5.2 11.2,-9.8L11.2,-42.4L4.8,-42.4Q3.3,-42.4 3.3,-43.9L3.3,-49.2Q3.3,-50.1 4.4,-50.3Q11.2,-50.3 11.2,-50.3L11.3,-56.4Q11.6,-60.2 8.4,-60.3Q8.3,-62.8 10.4,-63.5L25.9,-68.8Q27.2,-68.8 27.3,-67.5Z"></path><path transform="translate(630 200)" d=""></path><path transform="translate(660 200)" d="M5.6,-74.9L55,-74.9Q56.8,-74.8 57.3,-73.4Q58.7,-64.7 59.2,-62.2Q59.3,-60.3 57.6,-59.9Q55.4,-64.7 48.8,-64.9L26,-64.9L26,-41.5L53.4,-41.5Q54.2,-41.4 54.2,-40.7L54.2,-32.8Q54.2,-31.9 53.4,-31.9L26,-31.9L26,-10.3Q26,2.5 10.1,5.1L9.7,5.1Q8.8,5.1 8.8,4.3L8.8,-62.4Q8.6,-69.4 1.9,-72.8Q1.9,-74.9 5.6,-74.9Z"></path><path transform="translate(719 200)" d="M2.7,-22.9Q2.7,-29.3 4.65,-34.6Q6.6,-39.9 10.35,-43.7Q14.1,-47.5 19.5,-49.65Q24.9,-51.8 31.8,-51.8Q38.7,-51.8 44.1,-49.65Q49.5,-47.5 53.25,-43.7Q57,-39.9 58.95,-34.6Q60.9,-29.3 60.9,-22.9Q60.9,-16.5 58.95,-11.2Q57,-5.9 53.25,-2.1Q49.5,1.7 44.1,3.85Q38.7,6 31.8,6Q24.9,6 19.5,3.85Q14.1,1.7 10.35,-2.1Q6.6,-5.9 4.65,-11.2Q2.7,-16.5 2.7,-22.9ZM19.7,-22.9Q19.7,-13.4 22.9,-8.05Q26.1,-2.7 31.8,-2.7Q37.5,-2.7 40.7,-8.05Q43.9,-13.4 43.9,-22.9Q43.9,-32.4 40.7,-37.75Q37.5,-43.1 31.8,-43.1Q26.1,-43.1 22.9,-37.75Q19.7,-32.4 19.7,-22.9Z"></path><path transform="translate(786 200)" d="M37.9,-50.5Q49.9,-50.7 51,-34.1L51,-32.6Q51,-31.5 49.9,-31.3L40.6,-31.3Q39.8,-31.4 39.8,-32.6Q39.1,-38.1 36.4,-39L35.2,-39.1Q30.9,-39.1 25.2,-30.6Q24.5,-29.3 24.5,-28.3L24.5,-12.1Q24.5,1.8 13.1,5.1Q12.4,5.4 9.4,5.5Q8.7,5.3 8.6,4.5L8.6,-33.5Q8.6,-40.1 2.4,-43.9Q2.5,-45.7 4.1,-46Q20.1,-49.8 22.7,-50.1Q23.6,-50.1 23.4,-49L23.4,-37.1L23.7,-37.1Q29.6,-50.6 37.9,-50.5Z"></path><path transform="translate(838 200)" d=""></path><path transform="translate(868 200)" d="M2.2,-72.5L30.1,-72.5Q32.5,-72.6 33,-70.6L32.9,-70.6Q25.8,-67.8 26.9,-63.3L37.9,-23.2L38.3,-23.2L53.5,-68.2Q53.8,-69.1 54.8,-69.2L61.9,-69.2Q63,-69.2 63.4,-68.1L77.1,-24.5L77.6,-24.5L84.7,-62.4L84.7,-65.1Q84.3,-68.8 80.1,-69.7Q80.5,-72.3 83.6,-72.5L103.2,-72.5Q105.8,-72.3 106.4,-70.1L106.4,-69.7Q100.8,-68.1 98.6,-63.1L84.9,3.8Q84,5.6 82.5,5.5L72.7,5.6Q70.3,5.6 69.5,3L55.3,-40.1L55,-40.1L40.9,1.8Q40,5.6 37.4,5.5L30.4,5.5Q28.2,5.6 27.6,2.7L7.5,-63.8Q4.8,-68.8 -1.2,-69.2L-1.2,-70.1Q-0.5,-72.5 2.2,-72.5Z"></path><path transform="translate(972 200)" d="M28.7,-43.5Q25.2,-43.5 22.5,-39.85Q19.8,-36.2 19.8,-27.5L39.7,-27.5Q40,-35.1 36.8,-39.35Q33.6,-43.6 28.7,-43.5ZM54.8,-32.9Q56.7,-27 56,-20.4Q56.1,-18.2 54.2,-18.2L20.1,-18Q19.4,-18.2 19.6,-17.2Q19.7,-6.4 30.5,-4.2Q41.3,-2 50.8,-8.8Q51.1,-9.1 51.5,-8.9Q52.7,-8 54.2,-6.2Q54.8,-5.6 54.4,-5.1Q44,6.6 28.9,5.8Q10.2,5.1 3.5,-12.7Q2.6,-16.8 2.6,-20.1L2.6,-24Q5.8,-50.7 28.8,-51Q48.3,-51 54.8,-32.9Z"></path><path transform="translate(1034 200)" d="M22.8,-77.4Q23.9,-77.2 23.9,-75.9L23.9,-47.4Q29.2,-51.9 35.9,-51.9L38.2,-51.9Q53.1,-51.9 58.9,-34.7Q60.2,-28.7 60.2,-23Q60.2,-3.2 44.7,3.2Q39,4.8 34,4.8L10.4,4.8Q8.3,4.8 7.7,3.2L7.7,-59.6Q7.7,-67.7 1.2,-71.3L1.2,-72Q1.3,-72.6 2.1,-73L22.8,-77.4ZM23.9,-38.8L23.9,-5Q24,-3.9 25.1,-3.8L31.2,-3.8Q43.2,-3.8 43.2,-20.3L43.2,-26.9Q43.2,-37.1 38.2,-41.5Q36.6,-42.8 33.1,-43.5Q27.4,-43.5 23.9,-38.8Z"></path></svg>